<?xml version="1.0" encoding="utf-8"?>
<!-- Generator: Adobe Illustrator 22.0.1, SVG Export Plug-In . SVG Version: 6.00 Build 0)  -->
<svg version="1.1" id="Layer_1" xmlns="http://www.w3.org/2000/svg" xmlns:xlink="http://www.w3.org/1999/xlink" x="0px" y="0px"
	 viewBox="0 0 200 200" style="enable-background:new 0 0 200 200;" xml:space="preserve">
<style type="text/css">
	.st0{fill:#00AA13;}
	.st1{fill:#FFFFFF;}
</style>
<g>
	<circle class="st0" cx="100" cy="100" r="93.5"/>
	<path class="st1" d="M163.5,89.4c0,2.4,0,4.9,0,7.3c0,0.3-0.1,0.6-0.1,0.9c0,5.6-0.1,11.1-0.4,16.7c-0.2,4.5-0.4,9.1-0.6,13.6
		c-0.2,4.5-0.5,9.1-0.8,13.6c-0.2,3.7-0.5,7.3-0.7,11c0,0.8-0.4,1-1.1,1c-1.1,0-2.1,0.1-3.2,0.2c-0.9,0-1.2,0.4-1.1,1.3
		c0,0.5,0,1-0.1,1.5c0,0.7-0.4,1-1,1c-2.8,0.1-5.6,0.2-8.4,0.3c-0.6,0-0.8-0.3-0.8-0.8c0-0.6,0-1.2,0-1.8c0-0.7-0.2-0.9-0.9-0.9
		c-3.5,0.1-7,0.2-10.5,0.3c-5.1,0-49.8,0-54.9,0c-0.8,0-1.1,0.2-1.1,1c0.1,0.8,0,1.6,0,2.5c-1.2,0-2.4,0-3.7,0
		c-1.8-0.2-3.7-0.1-5.5-0.2c-1-0.1-1.5-0.3-1.4-1.4c0-0.4-0.1-0.9-0.1-1.3c0-0.8-0.4-1.1-1.1-1.1c-1.1,0-2.3-0.1-3.4-0.1
		c-0.7,0-1-0.4-1.1-1.1c-0.2-4.5-0.5-8.9-0.7-13.4c-0.3-5-0.5-10-0.8-15c-0.5-8.5-0.8-17-0.9-25.6c0-0.5-0.1-1.1-0.1-1.6
		c0-5.1,0-10.2,0-15.2c0-0.3,0.1-0.6,0.1-0.9c0-9.3,0.5-18.5,1-27.7c0.1-2.5,0.2-5.1,0.4-7.6c0.1-1.9,1.2-3,2.9-3.1
		c5.4-0.3,10.7-0.6,16.1-0.6c0.5,0,1,0,1.5-0.1c5.1,0,49.9,0,55.1,0c0.3,0,0.5,0.1,0.8,0.1c4.5,0,8.9,0.2,13.4,0.4
		c2.8,0.1,5.7,0.3,8.5,0.5c1.9,0.2,2.8,1.2,2.9,3.1c0.4,6.4,0.8,12.8,1.1,19.2c0.3,7.5,0.7,15,0.6,22.5
		C163.4,88.3,163.4,88.8,163.5,89.4z"/>
	<path class="st0" d="M97.1,51.6c9.2,0.1,18.4,0.3,27.7,0.7c1.7,0.1,1.7,0.1,1.8,1.4c0.4,7,0.9,14,1.2,21c0.4,9.2,0.5,18.5,0.3,27.7
		c-0.1,5.1-0.4,10.2-0.6,15.3c-0.1,2.8-0.4,5.5-0.6,8.3c0,0.6-0.3,0.9-1.1,0.9c-2,0.1-4,0.2-6,0.2c-11.3,0.3-22.7,0.5-34,0.3
		c-5.4-0.1-10.9-0.2-16.3-0.4c-1.2-0.1-1.4-0.4-1.5-1.2c-0.2-3.8-0.5-7.6-0.6-11.3c-0.4-9.8-0.8-19.6-0.7-29.3
		c0-6.4,0.3-12.8,0.5-19.2c0.1-4.2,0.4-8.3,0.6-12.5c0.1-1.3,0.1-1.4,1.8-1.4C78.7,51.6,87.9,51.5,97.1,51.6z"/>
	<g>
		<g>
			<path class="st0" d="M77.5,143v4.1h-2.9v-12h4.8c0.7,0,1.4,0.1,1.9,0.3c0.6,0.2,1.1,0.5,1.5,0.8c0.4,0.4,0.7,0.8,0.9,1.3
				c0.2,0.5,0.3,1,0.3,1.6c0,0.6-0.1,1.1-0.3,1.6c-0.2,0.5-0.5,0.9-0.9,1.2c-0.4,0.3-0.9,0.6-1.5,0.8c-0.6,0.2-1.2,0.3-1.9,0.3H77.5
				z M77.5,140.7h1.9c0.3,0,0.6,0,0.8-0.1c0.2-0.1,0.4-0.2,0.5-0.3c0.1-0.1,0.2-0.3,0.3-0.5c0.1-0.2,0.1-0.4,0.1-0.6
				c0-0.2,0-0.5-0.1-0.7c-0.1-0.2-0.2-0.4-0.3-0.6c-0.1-0.2-0.3-0.3-0.5-0.4c-0.2-0.1-0.5-0.2-0.8-0.2h-1.9V140.7z"/>
			<path class="st0" d="M95.3,143c0,0.6-0.2,1.2-0.4,1.7c-0.2,0.5-0.6,1-1,1.3c-0.4,0.4-0.9,0.7-1.5,0.9c-0.6,0.2-1.3,0.3-2,0.3
				c-0.8,0-1.5-0.1-2.1-0.4c-0.6-0.3-1.2-0.7-1.6-1.2c-0.4-0.5-0.8-1.1-1-1.8c-0.2-0.7-0.3-1.5-0.3-2.4v-0.7c0-0.9,0.1-1.7,0.4-2.4
				c0.2-0.7,0.6-1.3,1-1.8c0.4-0.5,1-0.9,1.6-1.2s1.3-0.4,2.1-0.4c0.8,0,1.5,0.1,2.1,0.3c0.6,0.2,1.1,0.5,1.5,0.9
				c0.4,0.4,0.7,0.8,1,1.4c0.2,0.5,0.4,1.1,0.4,1.7h-2.9c0-0.3-0.1-0.6-0.1-0.9c-0.1-0.3-0.2-0.5-0.4-0.6c-0.2-0.2-0.4-0.3-0.7-0.4
				c-0.3-0.1-0.6-0.1-1-0.1c-0.4,0-0.7,0.1-0.9,0.2c-0.3,0.1-0.5,0.3-0.7,0.6c-0.2,0.3-0.3,0.7-0.4,1.1c-0.1,0.5-0.1,1-0.1,1.6v0.7
				c0,0.6,0,1.2,0.1,1.6c0.1,0.4,0.2,0.8,0.4,1.1c0.2,0.3,0.4,0.5,0.7,0.6c0.3,0.1,0.6,0.2,1,0.2c0.7,0,1.2-0.2,1.5-0.5
				c0.4-0.3,0.5-0.8,0.6-1.5H95.3z"/>
			<path class="st0" d="M100.8,147v-12h4.3c0.7,0,1.4,0.1,2,0.2c0.6,0.1,1.1,0.3,1.5,0.6c0.4,0.3,0.7,0.6,0.9,1
				c0.2,0.4,0.3,0.9,0.3,1.5c0,0.3,0,0.5-0.1,0.8c-0.1,0.3-0.2,0.5-0.3,0.7c-0.1,0.2-0.3,0.4-0.5,0.6c-0.2,0.2-0.5,0.3-0.8,0.4
				c0.4,0.1,0.7,0.2,0.9,0.4c0.2,0.2,0.4,0.4,0.6,0.6c0.2,0.2,0.3,0.5,0.3,0.7c0.1,0.3,0.1,0.5,0.1,0.8c0,1.2-0.4,2.1-1.1,2.7
				c-0.8,0.6-1.9,0.9-3.4,0.9H100.8z M103.7,140h1.5c0.6,0,1.1-0.1,1.3-0.3c0.3-0.2,0.4-0.6,0.4-1c0-0.5-0.1-0.9-0.4-1.1
				c-0.3-0.2-0.8-0.3-1.4-0.3h-1.4V140z M103.7,141.9v2.9h1.9c0.3,0,0.5,0,0.7-0.1c0.2-0.1,0.4-0.2,0.5-0.3c0.1-0.1,0.2-0.3,0.3-0.4
				c0.1-0.2,0.1-0.3,0.1-0.5c0-0.2,0-0.4-0.1-0.6c-0.1-0.2-0.1-0.3-0.3-0.5c-0.1-0.1-0.3-0.2-0.5-0.3c-0.2-0.1-0.4-0.1-0.7-0.1
				H103.7z"/>
			<path class="st0" d="M121.1,135v7.8c0,0.7-0.1,1.3-0.3,1.9c-0.2,0.5-0.5,1-1,1.4c-0.4,0.4-0.9,0.6-1.5,0.8
				c-0.6,0.2-1.2,0.3-1.9,0.3c-0.7,0-1.3-0.1-1.9-0.3c-0.6-0.2-1.1-0.5-1.5-0.8c-0.4-0.4-0.7-0.8-1-1.4c-0.2-0.5-0.3-1.2-0.3-1.9
				V135h2.9v7.8c0,0.7,0.2,1.3,0.5,1.6s0.8,0.5,1.4,0.5c0.6,0,1-0.2,1.4-0.5c0.3-0.3,0.5-0.9,0.5-1.6V135H121.1z"/>
			<path class="st0" d="M126,147h-2.9v-12h2.9V147z"/>
			<path class="st0" d="M130.9,144.8h5v2.2H128v-12h2.9V144.8z"/>
			<path class="st0" d="M137.1,147v-12h3.9c0.8,0,1.6,0.1,2.2,0.4c0.7,0.3,1.3,0.7,1.8,1.2c0.5,0.5,0.9,1.1,1.1,1.8
				c0.3,0.7,0.4,1.5,0.4,2.3v0.5c0,0.9-0.1,1.6-0.4,2.3c-0.3,0.7-0.7,1.3-1.1,1.8c-0.5,0.5-1.1,0.9-1.7,1.2
				c-0.7,0.3-1.4,0.4-2.2,0.4H137.1z M140,137.3v7.5h1c0.8,0,1.5-0.3,1.9-0.9c0.4-0.6,0.7-1.5,0.7-2.6v-0.5c0-1.2-0.2-2-0.7-2.6
				c-0.4-0.6-1.1-0.9-1.9-0.9H140z"/>
		</g>
	</g>
	<path class="st1" d="M52.3,127.8c-0.1-3.9-0.2-7.9-0.3-11.8c0-0.7,0-0.8-0.5-0.8c-1.3-0.1-2.7-0.2-4-0.3c0-0.3,0-0.6,0-0.9
		c0-7.1,0-14.2,0-21.3c0-5.4-0.1-10.8-0.1-16.1c0-1,0-1-0.2-1.1c-0.3-0.1-0.7-0.2-1-0.2c0-0.1,0-0.2,0-0.4c0-0.7,0-1.4,0-2.1
		c0-0.4,0-0.8,0-1.1c0-0.2,0-0.4,0-0.6c0,0,0-0.1-0.1-0.1c-0.1,0-0.2,0-0.4,0c-0.7,0-1.3,0-2,0c-0.3,0-0.6,0-1,0
		c-0.1,0-0.1,0-0.1,0.1c0,0.3,0,0.6,0,0.8c0,0.7,0,1.5,0,2.2c0,0.3,0,0.7,0,1c-0.3,0.1-0.7,0.1-1,0.2c-0.2,0-0.2,0.1-0.2,1.1
		c0,3.2,0,6.4-0.1,9.6c0,4.9,0,9.8,0,14.7c0,4.7,0,9.4,0,14.1c-1.4,0-2.8,0.1-4.1,0.2c-0.4,0-0.4,0.1-0.5,0.8
		c-0.1,2.4-0.1,4.7-0.2,7.1c-0.1,3.6-0.1,7.2-0.1,10.8c0,5.5,0.1,11,0.2,16.6c0,2.1,0.1,4.3,0.2,6.4c0,0.5,0.1,0.7,0.4,0.7
		c1.4,0.1,2.8,0.2,4.2,0.2c2.9,0.1,5.8,0,8.8-0.2c0.5,0,1-0.1,1.6-0.1c0.2,0,0.3-0.2,0.3-0.5c0-1.6,0.1-3.1,0.1-4.7
		c0.1-2.9,0.1-5.8,0.2-8.6C52.4,138.2,52.4,133,52.3,127.8z"/>
</g>
</svg>
